<svg xmlns="http://www.w3.org/2000/svg" width="176.196" height="46.206" viewBox="0 0 176.196 46.206"><defs><style>.a{fill:#3a4747;}</style></defs><g transform="translate(-17.34 -25)"><path class="a" d="M45.847,36.77h-5.2L35.48,60.786h5.208Z" transform="translate(4.247 2.756)"/><path class="a" d="M62.36,36.77H47.834L42.7,60.786H57.386l.938-4.356h-9.49l1.283-5.973h8.232l.938-4.319H51.055l1.074-5.011h9.293Z" transform="translate(5.937 2.756)"/><path class="a" d="M32.149,36.931a27.139,27.139,0,0,0-3.135-.16H22.462L17.34,60.786h8.639a19.637,19.637,0,0,0,2.468-.123c6.775-.839,10.07-5.751,11.033-10.749C40.8,42.941,38.345,37.844,32.149,36.931ZM34.2,49.21c-.617,2.838-2.32,6.294-6.072,7.035a12.576,12.576,0,0,1-2.1.16H23.56l3.233-15.167h2.221a12.388,12.388,0,0,1,1.876.123C34.3,41.99,35,45.434,34.2,49.21Z" transform="translate(0 2.756)"/><path class="a" d="M132.186,36.77h-18.2l-.963,4.455h6.516l-4.2,19.561h5.2l4.2-19.561h6.491Z" transform="translate(22.401 2.756)"/><path class="a" d="M92.713,36.57c-8.33,0-11.49,5.652-12.823,12.267S81.347,61.1,88.925,61.1c8.33,0,11.49-5.652,12.81-12.267S100.291,36.57,92.713,36.57ZM96.28,48.911c-.839,3.875-2.468,7.911-6.812,7.911s-4.813-3.974-3.937-7.911,2.468-7.9,6.812-7.9,4.8,3.912,3.925,7.849Z" transform="translate(14.57 2.709)"/><path class="a" d="M100.307,43.843c0,2.838,1.74,4.233,3.381,5.492l2.74,2.036a9.4,9.4,0,0,1,1.456,1.234,1.949,1.949,0,0,1,.642,1.382,2.049,2.049,0,0,1-1,1.8,7.513,7.513,0,0,1-3.838.716,18.356,18.356,0,0,1-5.159-.938L97,60.01a23.841,23.841,0,0,0,7.035.963,14.929,14.929,0,0,0,6.072-1.037,6.369,6.369,0,0,0,4.258-6.035,5.443,5.443,0,0,0-1.234-3.517,14.621,14.621,0,0,0-2.555-2.345l-2.468-1.876c-1.234-.938-2.2-1.641-2.2-2.74a2.11,2.11,0,0,1,2.036-2.1,22.431,22.431,0,0,1,2.777-.1h3.937l.975-4.455h-4.393a40.379,40.379,0,0,0-4.319.16,6.96,6.96,0,0,0-6.553,6.911" transform="translate(18.65 2.755)"/><path class="a" d="M76.719,36.93a16.2,16.2,0,0,0-2.357-.16H67.821L62.65,60.786h5.159l1.58-7.318h3A12.217,12.217,0,0,0,76,53.011a9.541,9.541,0,0,0,6.64-7.516C83.47,41,81.211,37.683,76.719,36.93Zm.777,8.293a4.333,4.333,0,0,1-3.419,3.7,9.4,9.4,0,0,1-1.641.16h-2.1l1.678-7.837h2.258a4.858,4.858,0,0,1,1.518.2C77.077,41.805,77.891,43.064,77.5,45.224Z" transform="translate(10.608 2.756)"/><path class="a" d="M152.535,39.513,155.62,25h-19.45s-4.048,18.931-4.073,19.006h4.825l3.11-14.513h9.873l-3.184,14.513h14.624l-1.938,9.071h-14.6L141.9,66.652H130.876L130,71.206h15.858l2.925-13.575h14.5l3.875-18.092Z" transform="translate(26.376 0)"/></g></svg>