<svg xmlns="http://www.w3.org/2000/svg" width="211.587" height="48.578" viewBox="0 0 211.587 48.578"><defs><style>.a{fill:none;}.b{fill:#3a4747;}</style></defs><rect class="a" width="211.587" height="48.578"/><path class="b" d="M195.2,48.375V41.749a3.939,3.939,0,0,0-4.161-4.205,4.1,4.1,0,0,0-3.715,1.882,3.883,3.883,0,0,0-3.494-1.882,3.5,3.5,0,0,0-3.092,1.573V37.791h-2.3V48.375h2.324V42.513c0-1.838,1.016-2.809,2.589-2.809s2.3.994,2.3,2.787v5.884h2.31V42.513a2.492,2.492,0,0,1,2.589-2.809c1.528,0,2.324.994,2.324,2.787v5.884ZM229.584,37.8h-3.759V34.592H223.5V37.8h-2.147v2.1H223.5v4.819c0,2.456.95,3.918,3.671,3.918a5.409,5.409,0,0,0,2.876-.817l-.663-1.97a4.248,4.248,0,0,1-2.036.6c-1.149,0-1.528-.707-1.528-1.767V39.9h3.759Zm19.626-.265a3.119,3.119,0,0,0-2.787,1.55V37.8h-2.279V48.375h2.3V42.447c0-1.767.751-2.721,2.257-2.721a3.753,3.753,0,0,1,1.44.265l.707-2.169A4.911,4.911,0,0,0,249.211,37.534Zm-29.671,1.1a7.91,7.91,0,0,0-4.316-1.1c-2.677,0-4.417,1.285-4.417,3.384,0,1.727,1.281,2.787,3.649,3.119l1.082.155c1.259.177,1.86.508,1.86,1.1,0,.817-.839,1.285-2.412,1.285a5.638,5.638,0,0,1-3.534-1.1L210.4,47.266a7.628,7.628,0,0,0,4.581,1.374c3.052,0,4.824-1.44,4.824-3.45,0-1.86-1.4-2.832-3.693-3.163l-1.082-.155c-.994-.133-1.793-.331-1.793-1.038,0-.773.751-1.237,2.014-1.237a6.816,6.816,0,0,1,3.3.906Zm61.631-1.1a3.119,3.119,0,0,0-2.787,1.55V37.8H276.1V48.375h2.3V42.447c0-1.767.751-2.721,2.257-2.721a3.753,3.753,0,0,1,1.44.265l.707-2.169A4.911,4.911,0,0,0,281.17,37.534Zm-29.636,5.553a5.343,5.343,0,0,0,5.641,5.553,5.538,5.538,0,0,0,3.8-1.263l-1.1-1.86a4.644,4.644,0,0,1-2.765.95,3.146,3.146,0,0,1-3.185-3.384,3.16,3.16,0,0,1,3.185-3.384,4.644,4.644,0,0,1,2.765.95l1.1-1.86a5.538,5.538,0,0,0-3.8-1.263,5.343,5.343,0,0,0-5.641,5.553Zm21.548,0v-5.3h-2.3v1.285a4.011,4.011,0,0,0-3.34-1.55,5.309,5.309,0,0,0-5.3,5.553,5.3,5.3,0,0,0,5.3,5.553,4.011,4.011,0,0,0,3.34-1.55v1.281h2.3Zm-8.561,0a3.2,3.2,0,1,1,3.207,3.384A3.169,3.169,0,0,1,264.521,43.087Zm-27.768-5.553c-3.092,0-5.265,2.257-5.265,5.553a5.216,5.216,0,0,0,5.42,5.553,6.428,6.428,0,0,0,4.338-1.484L240.12,45.45a5.042,5.042,0,0,1-3.092,1.1,2.934,2.934,0,0,1-3.163-2.589h7.854c.022-.287.044-.574.044-.883,0-3.3-2.059-5.553-5.023-5.553Zm-.044,2.058a2.624,2.624,0,0,1,2.677,2.566H233.9a2.72,2.72,0,0,1,2.809-2.566Zm57.713,3.494V33.55h-2.3v5.531a4.011,4.011,0,0,0-3.34-1.55,5.309,5.309,0,0,0-5.3,5.553,5.3,5.3,0,0,0,5.3,5.553,4.011,4.011,0,0,0,3.34-1.55v1.281h2.3Zm2.69,4.311a.675.675,0,0,1,.265.053.693.693,0,0,1,.216.146.669.669,0,0,1,.146.212.66.66,0,0,1,0,.521.674.674,0,0,1-.146.212.714.714,0,0,1-.216.146.659.659,0,0,1-.265.053.685.685,0,0,1-.636-.411.664.664,0,0,1,0-.521.671.671,0,0,1,.362-.358.7.7,0,0,1,.283-.053Zm0,1.193a.5.5,0,0,0,.2-.04.534.534,0,0,0,.163-.11.524.524,0,0,0-.163-.853.51.51,0,0,0-.2-.04.521.521,0,1,0,.009,1.042Zm.04-.839a.284.284,0,0,1,.186.053.176.176,0,0,1,.066.146.167.167,0,0,1-.053.128.246.246,0,0,1-.146.062l.2.234h-.159l-.19-.234H297v.234h-.133v-.618Zm-.155.115v.168h.155a.151.151,0,0,0,.084,0,.077.077,0,0,0,0-.124.151.151,0,0,0-.084,0Zm-11.127-4.78a3.2,3.2,0,1,1,3.207,3.384A3.169,3.169,0,0,1,285.87,43.087Zm-77.7,0v-5.3h-2.3v1.285a4.011,4.011,0,0,0-3.326-1.537,5.309,5.309,0,0,0-5.3,5.553,5.3,5.3,0,0,0,5.3,5.553,4.011,4.011,0,0,0,3.34-1.55V48.37h2.3Zm-8.561,0a3.2,3.2,0,1,1,3.207,3.384,3.169,3.169,0,0,1-3.207-3.384Z" transform="translate(-99.617 -18.73)"/><g transform="translate(16.769 8.389)"><g transform="translate(18.773 3.396)"><path class="b" d="M87.055,51.687h-6.6V26.68h6.582s.013.009.018.013a16.125,16.125,0,0,0,0,24.993Z" transform="translate(-80.46 -26.68)"/><path class="b" d="M95.77,26.68V51.687h-6.6a16.116,16.116,0,0,0,2.491-22.462,16.3,16.3,0,0,0-2.491-2.536l-.181.141v.283a15.67,15.67,0,0,1,0,24.154v.283l.172.137h-.7l.177-.137v-.283A15.552,15.552,0,0,1,82.96,39.2V39.19a15.535,15.535,0,0,1,5.681-12.077V26.83l-.186-.146,0,0Z" transform="translate(-81.856 -26.68)"/></g><g transform="translate(0 0.005)"><path class="b" d="M88.641,27.66l0,24.154A15.552,15.552,0,0,1,82.96,39.75v-.013A15.535,15.535,0,0,1,88.641,27.66Z" transform="translate(-63.083 -23.836)"/><path class="b" d="M63.684,47.4l.009.009a1.727,1.727,0,0,1-.181.133,15.9,15.9,0,1,1,0-25.281l.172.133s.009,0,.013.009c-.057.044-.115.093-.172.141l-.186-.146,0,0h-.022s.013.009.018.013a16.125,16.125,0,0,0,0,24.993h.009l.177-.137C63.569,47.313,63.626,47.357,63.684,47.4Z" transform="translate(-37.962 -19.004)"/></g><g transform="translate(25.73)"><path class="b" d="M96.6,51.814l0-24.154a15.67,15.67,0,0,1,0,24.154Z" transform="translate(-96.428 -23.831)"/><path class="b" d="M121.941,34.9A15.9,15.9,0,0,1,96.4,47.54c-.062-.044-.124-.093-.186-.141l0,0c.057-.044.11-.088.168-.137l.172.137h.013a16.116,16.116,0,0,0,2.491-22.462A16.3,16.3,0,0,0,96.568,22.4l-.181.141c-.057-.053-.115-.1-.177-.146l0,0c.057-.044.11-.088.172-.133h0A15.9,15.9,0,0,1,121.941,34.9Z" transform="translate(-96.21 -18.992)"/></g><g transform="translate(49.624 25.134)"><path class="b" d="M150.609,76.508V76h.208v-.1H150.3V76h.208v.512Zm1.02,0V75.89h-.137l-.186.442-.186-.442h-.163v.618h.093v-.464l.172.4h.119l.172-.4v.468Z" transform="translate(-150.3 -75.89)"/></g></g></svg>