<svg xmlns="http://www.w3.org/2000/svg" width="137.265" height="32.56" viewBox="0 0 137.265 32.56"><defs><style>.a{fill:#3a4747;}</style></defs><path class="a" d="M226.538,45.84H201.77V51.8h8.86V77.4h7.008V51.8h8.9Z" transform="translate(-89.273 -44.839)"/><path class="a" d="M91.688,45.84H66.92V51.8h8.9V77.4h7.008V51.8h8.86Z" transform="translate(-66.92 -44.839)"/><path class="a" d="M180.13,44.64C172.346,44.64,168,49.7,168,56.962V77.2h6.924V56.786c0-3.178,1.852-5.614,5.289-5.614s5.247,2.87,5.247,5.614V77.2h6.924V56.962C192.385,49.7,187.913,44.64,180.13,44.64Z" transform="translate(-83.676 -44.64)"/><path class="a" d="M151.15,45.84V77.4h6.966V45.84Z" transform="translate(-80.882 -44.839)"/><path class="a" d="M119.343,58.379l.259,1.393,6.49,17.627h2.845L137.8,45.84h-6.841L126.7,62.425l-.217,1.785-.342-1.785L120.461,45.84h-2.236l-5.631,16.585-.342,1.785-.259-1.785L107.781,45.84H100.94L109.8,77.4h2.836l6.49-17.627.217-1.393" transform="translate(-72.559 -44.839)"/></svg>